<?xml version="1.0" ?><svg viewBox="0 0 128 128" xmlns="http://www.w3.org/2000/svg"><defs><style>.cls-1{fill:#e6e6e6;}.cls-2{fill:#f7f7f7;}.cls-3{fill:#ccc;}.cls-4{fill:#333;}.cls-5{fill:#1f1f1f;}.cls-6{fill:#666;}.cls-7{fill:#b3b3b3;}.cls-8{fill:#999;}</style></defs><title/><g data-name="13 Computer" id="_13_Computer"><rect class="cls-1" height="4" width="78" x="25" y="94"/><path class="cls-1" d="M106.11,104H21.89A5.89,5.89,0,0,1,16,98.11h0A2.11,2.11,0,0,1,18.11,96h91.79C113.9,96,112,104,106.11,104Z"/><path class="cls-2" d="M16.69,98.79a2.11,2.11,0,0,1,2.11-2.11c98.2,0,92.09-.18,92.89.32-.9-1.46,5.59-1-93.58-1A2.11,2.11,0,0,0,16,98.11a5.88,5.88,0,0,0,2.09,4.49A5.87,5.87,0,0,1,16.69,98.79Z"/><path class="cls-3" d="M110.87,96.25c1,2-1,6.87-5.65,6.87H21a5.87,5.87,0,0,1-3.7-1.31A5.88,5.88,0,0,0,21.89,104h84.21C111.27,104,113.57,97.67,110.87,96.25Z"/><rect class="cls-1" height="64" rx="6" ry="6" width="90" x="19" y="32"/><path class="cls-2" d="M19.47,90.47v-52a6,6,0,0,1,6-6c84.86,0,79.58-.63,82,1.53-2.53-2.82,2-2-82.47-2a6,6,0,0,0-6,6V90a6,6,0,0,0,2,4.47A6,6,0,0,1,19.47,90.47Z"/><path class="cls-3" d="M106.62,33.22a6,6,0,0,1,1.22,3.62v52a6,6,0,0,1-6,6c-84.55,0-79.33.52-81.62-1.22A6,6,0,0,0,25,96h78a6,6,0,0,0,6-6V38A6,6,0,0,0,106.62,33.22Z"/><rect class="cls-4" height="82" rx="4" ry="4" transform="translate(0 128) rotate(-90)" width="56" x="36" y="23"/><path class="cls-5" d="M23.61,40.61a4,4,0,0,1,4-4c79.8,0,74.89-.4,76.49.89C102.37,35.35,106.85,36,27,36a4,4,0,0,0-4,4c0,51.93-.57,49.44,1.51,51.11C23.27,89.57,23.61,93,23.61,40.61Z"/><path class="cls-6" d="M104.39,87.39a4,4,0,0,1-4,4c-79.8,0-74.89.4-76.49-.89C25.63,92.65,21.15,92,101,92a4,4,0,0,0,4-4V40a4,4,0,0,0-1.51-3.11C104.73,38.43,104.39,35,104.39,87.39Z"/><path class="cls-7" d="M48,96H80a0,0,0,0,1,0,0v0a3,3,0,0,1-3,3H51a3,3,0,0,1-3-3v0A0,0,0,0,1,48,96Z"/><path class="cls-8" d="M79.91,96.69A3,3,0,0,0,80,96H48a3,3,0,0,0,.09.69Z"/></g></svg>