<?xml version="1.0" ?><svg viewBox="0 0 128 128" xmlns="http://www.w3.org/2000/svg"><defs><style>.cls-1{fill:#d2423f;}.cls-2{fill:#ba3b38;}.cls-3{fill:#2175aa;}.cls-4{fill:#4d91bb;}.cls-5{fill:#1d6694;}</style></defs><title/><g data-name="24 DNA" id="_24_DNA"><path class="cls-1" d="M98.42,58.58l-29-29a2,2,0,0,1,2.83-2.83l29,29A2,2,0,0,1,98.42,58.58Zm-9.52,2.16L67.27,39.11a2,2,0,0,0-2.83,2.83L86.06,63.56A2,2,0,0,0,88.89,60.73ZM74.1,63.27,64.73,53.9a2,2,0,0,0-2.83,2.83c10.18,10.18,9.65,10,10.79,10A2,2,0,0,0,74.1,63.27Zm37.31-14.69-32-32a2,2,0,0,0-2.83,2.83C111.05,53.88,108.8,52,110,52A2,2,0,0,0,111.41,48.59ZM58.58,98.42l-29-29a2,2,0,0,0-2.83,2.83l29,29A2,2,0,0,0,58.58,98.42Zm5-12.35L41.93,64.44a2,2,0,0,0-2.83,2.83L60.73,88.89A2,2,0,0,0,63.56,86.06Zm1.18-16.15-8-8a2,2,0,0,0-2.83,2.83l8,8A2,2,0,0,0,64.74,69.91ZM51.41,108.59l-32-32a2,2,0,0,0-2.83,2.83C51.05,113.88,48.8,112,50,112A2,2,0,0,0,51.41,108.59Z"/><path class="cls-2" d="M39.11,67.27l4.09,4.09q2.35-.56,4.76-.89l-6-6A2,2,0,0,0,39.11,67.27Z"/><path class="cls-2" d="M60.73,88.89a2,2,0,0,0,2.83-2.83l-6-6q-.33,2.41-.89,4.76Z"/><path class="cls-2" d="M29.58,69.42a2,2,0,0,0-2.83,2.83l4,4q1.83-1,3.75-1.91Z"/><path class="cls-2" d="M47,104.18c-.84,1-1.74,2-2.68,3C48.89,111.71,48.91,112,50,112a2,2,0,0,0,1.41-3.41Z"/><path class="cls-2" d="M58.58,98.42,53.66,93.5q-.87,1.91-1.91,3.75l4,4A2,2,0,0,0,58.58,98.42Z"/><path class="cls-2" d="M23.82,81l-4.41-4.41a2,2,0,0,0-2.83,2.83l4.26,4.26C21.81,82.74,22.8,81.84,23.82,81Z"/><path class="cls-2" d="M74.1,63.27,64.73,53.9a2,2,0,0,0-2.83,2.83c10.18,10.18,9.65,10,10.79,10A2,2,0,0,0,74.1,63.27Z"/><path class="cls-2" d="M86.06,63.56a2,2,0,0,0,2.83-2.83l-4.08-4.08q-2.35.56-4.76.89Z"/><path class="cls-2" d="M56.73,61.9a2,2,0,0,0-2.83,2.83l8,8a2,2,0,0,0,2.83-2.83Z"/><path class="cls-2" d="M69.42,29.58l4.92,4.92q.87-1.91,1.91-3.75l-4-4A2,2,0,0,0,69.42,29.58Z"/><path class="cls-2" d="M67.27,39.11a2,2,0,0,0-2.83,2.83l6,6q.33-2.41.89-4.76Z"/><path class="cls-2" d="M81,23.82c.84-1,1.74-2,2.68-3l-4.26-4.26a2,2,0,0,0-2.83,2.83Z"/><path class="cls-2" d="M98.42,58.58a2,2,0,0,0,2.83-2.83l-4-4q-1.83,1-3.75,1.91Z"/><path class="cls-2" d="M104.18,47c4.78,4.78,4.75,5,5.82,5a2,2,0,0,0,1.41-3.41l-4.26-4.26C106.19,45.26,105.2,46.16,104.18,47Z"/><path class="cls-3" d="M13.17,77.17c33.57-33.57,65.35-1.35,96-32a4,4,0,0,1,5.66,5.66C95.25,70.41,74.77,68,54.63,68a50.3,50.3,0,0,0-35.8,14.83C15.1,86.56,9.44,80.91,13.17,77.17Z"/><path class="cls-4" d="M14.17,77.17A58.24,58.24,0,0,1,55.63,60c-17.22,0-31.54,6.26-42.46,17.17A3.95,3.95,0,0,0,16.5,84,4,4,0,0,1,14.17,77.17Z"/><path class="cls-4" d="M110.17,45.17A4,4,0,0,1,112.5,44a4,4,0,0,0-3.33,1.12A50.3,50.3,0,0,1,73.37,60C88.36,60,100.7,54.64,110.17,45.17Z"/><path class="cls-5" d="M15,83.86a3.93,3.93,0,0,0,3.83-1A50.3,50.3,0,0,1,54.63,68C27.31,68,18.36,83,15,83.86Z"/><path class="cls-5" d="M111,44.14a4,4,0,0,1,1.83,6.68A58.24,58.24,0,0,1,71.37,68c17.85,0,32.05-5.77,43.46-17.17A4,4,0,0,0,111,44.14Z"/><rect class="cls-5" height="8" width="12" x="58" y="60"/><path class="cls-3" d="M45.17,109.17A50.3,50.3,0,0,0,60,73.37V54.63A58.24,58.24,0,0,1,77.17,13.17a4,4,0,0,1,5.66,5.66A50.3,50.3,0,0,0,68,54.63c0,19.09,2.63,40.4-17.17,60.2C47.1,118.56,41.44,112.91,45.17,109.17Z"/><path class="cls-4" d="M84,16.5a4,4,0,0,0-6.78-3.33C66.29,24.06,60,38.37,60,55.63A58.24,58.24,0,0,1,77.17,14.17,4,4,0,0,1,84,16.5Z"/><path class="cls-4" d="M45.17,110.17C54.61,100.73,60,88.4,60,73.37a50.3,50.3,0,0,1-14.83,35.8A4,4,0,0,0,44,112.5,4,4,0,0,1,45.17,110.17Z"/><path class="cls-5" d="M44.14,111a4,4,0,0,0,6.68,3.83C62.23,103.43,68,89.23,68,71.37a58.24,58.24,0,0,1-17.17,41.46A4,4,0,0,1,44.14,111Z"/><path class="cls-5" d="M82.83,16.83A50.3,50.3,0,0,0,68,52.63v2a50.3,50.3,0,0,1,14.83-35.8,4,4,0,0,0,1-3.83A4,4,0,0,1,82.83,16.83Z"/></g></svg>