<?xml version="1.0" encoding="utf-8"?>
<!-- Generator: Adobe Illustrator 23.0.3, SVG Export Plug-In . SVG Version: 6.00 Build 0)  -->
<svg version="1.1" id="Layer_1" xmlns="http://www.w3.org/2000/svg" xmlns:xlink="http://www.w3.org/1999/xlink" x="0px" y="0px"
	 viewBox="0 0 480.53 1024" style="enable-background:new 0 0 480.53 1024;" xml:space="preserve">
<path d="M37.56,1024c-1.53-0.53-3.04-1.15-4.61-1.58c-17.46-4.81-31.27-19.15-32.03-36.26c-1.31-29.6-2.2-59.29,4.34-88.6
	c10.13-45.35,32.5-84.03,64.64-117.03c12.74-13.08,27.3-24.37,41.02-36.49c1.93-1.71,3.6-2.29,6.13-0.63
	c27.48,17.96,56.86,32.01,87.94,42.55c0.42,0.14,0.77,0.47,1.12,0.68c-15.36,9.46-30.65,18.87-45.94,28.29
	c0.25,0.71,0.5,1.43,0.76,2.14c1.87,0,3.75,0,5.62,0c36.33,0,72.67,0.08,109-0.1c5.08-0.02,9.3,1.21,13.54,3.91
	c19.8,12.65,37.74,27.38,52.55,45.73c0.91,1.13,1.75,2.34,3.42,4.59c-3.04,0-5.09,0-7.13,0c-74.33,0-148.66,0.04-223-0.11
	c-4.65-0.01-7.15,1.45-9.33,5.52c-6.72,12.53-12.19,25.46-15.25,40c100.15,0,199.83,0,300.45,0c-0.83-3.29-1.48-6.44-2.4-9.51
	c-8.82-29.17-25.57-53.34-47.46-74.06c-32.6-30.86-71.12-51.2-114.08-63.74c-61.06-17.83-114.5-48.67-158.4-95.03
	C35.19,639.16,12.14,598.38,3.7,550.27c-9.15-52.2-0.14-101.47,25.66-147.65c20.42-36.54,48.6-66.18,82.12-90.93
	c1.22-0.9,3.96-1.23,5.12-0.48c27.99,18.12,57.89,32.22,89.38,43.05c0.15,0.05,0.26,0.2,0.28,0.21
	c-15.43,9.49-30.91,19.01-46.4,28.54c0.21,0.67,0.42,1.35,0.63,2.02c1.69,0,3.38,0,5.07,0c36.5,0,73,0.09,109.5-0.09
	c5.39-0.03,9.91,1.15,14.47,4.09c20.02,12.93,38.22,27.86,53.04,46.67c0.61,0.77,1.16,1.59,2.56,3.51c-2.91,0-4.93,0-6.94,0
	c-74.33,0-148.66,0.05-223-0.11c-4.82-0.01-7.84,1.19-9.67,5.72c-4.42,10.94-9.08,21.78-13.51,32.71c-0.85,2.1-1.09,4.46-1.72,7.16
	c100.3,0,200.02,0,300.41,0c-0.58-2.63-0.97-5.02-1.63-7.33c-9.28-32.63-28.36-58.92-53.31-81.2c-31.88-28.47-69-47.18-109.9-59.28
	c-67.11-19.85-124.79-54.92-169.96-109.02C27.09,193.36,7.56,154.14,2.6,109.18C0,85.61,0.34,61.6,1,37.84
	C1.47,20.74,15.51,6.35,32.93,1.56C34.5,1.13,36.02,0.52,37.56,0c4,0,8,0,12,0c0.75,0.32,1.47,0.76,2.25,0.94
	c22.27,5.21,35.34,21.59,35.49,44.52c0.05,7.27,0.05,7.28,7.28,7.28c97.32,0,194.64,0,291.96,0c1.17,0,2.34-0.09,3.5,0
	c2.81,0.21,3.94-1.04,3.75-3.82c-0.14-1.99-0.1-4,0.01-6c1.1-18.73,10.13-32.04,27.38-39.53c3.32-1.44,6.91-2.27,10.37-3.39
	c4,0,8,0,12,0c7.13,3.38,14.88,5.89,21.25,10.36c9.22,6.47,14.99,16.22,15.4,27.5c1.16,32.29,2.19,64.63-6.22,96.38
	c-11.1,41.92-32.43,78.04-62.49,108.87c-12.86,13.19-27.55,24.59-41.35,36.86c-2.22,1.98-4,2-6.56,0.33
	c-27.08-17.62-55.96-31.58-86.58-41.92c-0.73-0.25-1.42-0.62-2.22-0.97c15.52-9.56,30.8-18.97,46.09-28.38
	c-0.25-0.71-0.49-1.42-0.74-2.12c-1.88,0-3.77,0-5.65,0c-36.16,0-72.33-0.09-108.49,0.1c-5.42,0.03-9.96-1.25-14.47-4.17
	c-19.57-12.67-37.43-27.24-52.12-45.48c-0.91-1.13-1.74-2.34-3.41-4.6c3.03,0,5.08,0,7.13,0c74.33,0,148.65-0.04,222.98,0.11
	c4.65,0.01,7.15-1.46,9.33-5.52c6.73-12.52,12.2-25.45,15.28-39.99c-100.26,0-200.05,0-300.89,0c2.42,7.47,4.28,14.54,6.96,21.27
	c12.25,30.68,32.87,55,58.36,75.45c28.83,23.13,61.17,39.6,96.66,49.8c53.37,15.34,101.3,40.67,142.57,77.96
	c43.38,39.2,73.8,86.2,83.46,144.8c8.46,51.38-0.93,99.81-26.36,145.12c-20.4,36.35-48.47,65.86-81.84,90.51
	c-1.22,0.9-3.96,1.26-5.12,0.51c-27.99-18.12-57.89-32.22-89.37-43.05c-0.15-0.05-0.26-0.2-0.3-0.23
	c15.43-9.49,30.9-19.01,46.38-28.52c-0.21-0.67-0.42-1.34-0.62-2c-1.7,0-3.39,0-5.09,0c-36.5,0-72.99-0.09-109.49,0.09
	c-5.4,0.03-9.91-1.17-14.46-4.11c-19.88-12.83-37.97-27.64-52.72-46.28c-0.71-0.9-1.36-1.84-2.85-3.88c2.93,0,4.95,0,6.97,0
	c74.33,0,148.65-0.05,222.98,0.11c4.84,0.01,7.82-1.26,9.65-5.76c4.43-10.94,9.09-21.78,13.52-32.71c0.85-2.1,1.09-4.44,1.72-7.14
	c-100.32,0-200.04,0-301.19,0c3.04,8.8,5.39,17.25,8.81,25.24c13.49,31.49,35.73,55.95,62.74,76.35
	c28.38,21.43,60.02,36.11,94.09,46.23c67.26,19.97,125.06,55.1,170.26,109.42c28.87,34.7,48.22,74.16,53.16,119.28
	c2.53,23.07,2.1,46.58,1.48,69.86c-0.47,17.37-14.36,31.89-32.02,36.75c-1.56,0.43-3.07,1.05-4.6,1.58c-4,0-8,0-12,0
	c-0.58-0.29-1.13-0.72-1.74-0.87c-23.14-5.57-35.9-21.53-36.02-45.07c-0.03-6.8-0.03-6.81-6.74-6.81
	c-97.16,0-194.32-0.01-291.49,0.01c-9.78,0-8.14-0.62-8.26,8.29c-0.3,21.82-13.68,38.43-35.03,43.43c-0.94,0.22-1.82,0.68-2.73,1.03
	C45.56,1024,41.56,1024,37.56,1024z" fill="#FFFFFF"/>
</svg>
