<?xml version="1.0" encoding="utf-8"?>
<!-- Generator: Adobe Illustrator 23.0.3, SVG Export Plug-In . SVG Version: 6.00 Build 0)  -->
<svg version="1.1" id="Layer_1" xmlns="http://www.w3.org/2000/svg" xmlns:xlink="http://www.w3.org/1999/xlink" x="0px" y="0px"
	 viewBox="0 0 693.41 693.8" style="enable-background:new 0 0 693.41 693.8;" xml:space="preserve">
<style type="text/css">
	.st0{fill:#FFFFFF;}
</style>
<path class="st0" d="M693.41,299.94c-1.91,8.41-5.43,16.11-10.35,23.09c-6.07,8.6-14.18,14.79-23.75,19.05
	c-13.76,6.13-27.97,5.62-42.01,1.79c-7.26-1.98-13.62-6.34-19.5-11.26c-7.7-6.45-12.74-14.61-16.43-23.77
	c-2.17-5.39-3.88-6.11-9.59-6.58c-8.86-0.73-17.74-1.41-26.56-2.65c-5.85-0.82-11.79-0.93-17.68-1.52
	c-8.39-0.84-16.74-2.08-25.14-2.67c-5.67-0.4-11.32-1-16.97-1.58c-8.5-0.87-17.03-1.44-25.49-2.7c-5.26-0.78-10.61-0.97-15.91-1.52
	c-3.08-0.32-6.14-0.85-9.21-1.28c-2.32-0.32-4.09,0.08-5.54,2.38c-3.83,6.11-6.36,12.92-10.7,18.76
	c-7.37,9.93-16.21,18.16-26.69,24.71c-9.52,5.94-19.81,10.09-30.81,11.74c-8.24,1.24-16.66,1.67-25.09,0.36
	c-3.62-0.56-7.3-0.85-10.93-1.5c-3.01-0.54-4.44,2.11-5.64,4.01c-4.02,6.36-7.67,12.95-11.45,19.46
	c-5.27,9.09-10.48,18.21-15.85,27.25c-1.14,1.92-0.96,3.3,0.46,4.82c6.7,7.19,12.14,15.28,16.34,24.14
	c3.47,7.31,6.74,14.73,7.61,22.95c0.21,1.94,1.3,3.28,3.55,4.13c6.71,2.55,13.8,2.54,20.69,3.81c5.2,0.96,10.43,1.73,15.71,2
	c6.6,0.34,13.13,1.09,19.67,1.82c7.91,0.88,15.83,1.63,23.72,2.71c4.57,0.63,9.2,0.97,13.8,1.43c6.55,0.66,13.17,0.95,19.61,2.31
	c5.17,1.09,6.93-2.54,9.1-5.61c9.51-13.48,22.31-22.25,38.42-25.31c15.88-3.02,31.1-0.2,44.24,9.6
	c12.58,9.38,21.38,21.35,23.22,37.67c1.38,12.3,1.1,24.31-4.95,35.36c-6.94,12.65-16.62,22.83-30.31,28.11
	c-9.59,3.69-19.72,4.07-30.03,2.91c-6.51-0.73-12.74-2.03-18.33-5.22c-13.14-7.5-22.64-18.35-28.08-32.56
	c-1.02-2.67-2.36-4.25-5.45-4.9c-7.78-1.64-15.66-2.44-23.52-3.42c-7.32-0.91-14.61-2.2-21.95-2.7c-7.4-0.5-14.71-1.71-22.1-2.31
	c-7.22-0.6-14.38-2.08-21.6-2.64c-6.98-0.54-13.87-1.65-20.83-2.28c-0.97-0.09-1.93-0.27-2.88-0.47c-3.91-0.79-5.22,2.44-6.78,5.12
	c-3.29,5.62-6.29,11.4-10.17,16.69c-6.88,9.37-15.33,16.98-25.09,23.21c-8.86,5.66-18.52,9.55-28.85,11.15
	c-8.27,1.28-16.66,1.15-25.09,0.31c-8.99-0.89-17.59-3.06-26.03-5.95c-2.31-0.79-3.81-0.31-5.3,1.05
	c-5.97,5.44-10.87,11.85-16.26,17.83c-4.32,4.79-8.18,10-12.32,14.95c-8.14,9.71-16.18,19.5-23.49,29.86
	c-0.79,1.12-0.75,2.14-0.22,3.39c3.7,8.78,5.99,17.95,5.41,27.48c-0.7,11.36-2.07,22.62-9.77,31.96
	c-8.61,10.45-18.04,19.59-31.74,23.09c-3.63,0.93-7.43,0.23-10.9,1.8c-3.35-0.18-7.53-0.41-10.88-0.59
	c-1.01-0.68-2.26-0.08-3.35-0.19c-5.85-0.57-11.58-1.73-16.68-4.74c-8.81-5.19-16.17-12.14-22.29-20.24
	c-5.25-6.95-8.85-14.75-7.96-24.13c0.55-5.81,0.63-11.64,0-17.45c-0.35-3.23,0.21-6.28,1.14-9.24
	c3.83-12.33,12.31-21.07,22.16-28.82c14.02-11.02,30.18-9.93,46.45-8.5c3.28,0.29,6.29,0.19,8.93-2.64
	c3.97-4.26,7.81-8.6,11.55-13.06c5.5-6.57,11.18-12.99,16.68-19.56c6.67-7.97,13.16-16.09,19.87-24.02
	c4.08-4.82,4.2-4.71,1.03-10.42c-0.17-0.3-0.26-0.64-0.43-0.93c-7.77-12.61-12.55-26.19-12.98-41.09
	c-0.32-11.26,0.35-22.48,3.71-33.32c0.76-2.45,0.18-3.43-1.79-4.73c-17.27-11.42-34.48-22.93-51.64-34.51
	c-1.75-1.18-3-1.47-4.87-0.31c-11.34,7.04-23.63,10.18-37,8.78c-2.67-0.28-5.36,0.21-8.05-0.32c-7.41-1.48-14.09-4.8-20.09-9.09
	c-15.1-10.81-24.83-24.83-24.45-44.32c0.02-0.92,0.67-2.14-0.67-2.8c0-0.47,0-0.94,0-1.41c1.34-0.65,0.63-1.87,0.67-2.8
	c0.14-2.93-0.42-6.01,0.27-8.78c2.66-10.74,7.66-20.49,15.46-28.26c8.46-8.43,18.39-14.65,30.77-16.03
	c8.38-0.94,16.76-1.37,24.98,0.56c13.16,3.08,23.82,10.38,31.72,21.23c6.98,9.6,11.83,20.16,11.31,32.52
	c-0.2,4.82-0.01,9.65-0.05,14.48c-0.02,2.3,0.56,3.33,5.02,5.22c16.63,7.04,31.73,17.21,44.46,30.02c4.46,4.49,6.83,4.75,9.98,2.3
	c12.73-9.89,26.5-17.53,42.86-19.37c11.51-1.29,23.08-1.63,34.42,0.91c3.53,0.79,5.25-0.5,6.55-2.77
	c9.32-16.24,18.87-32.35,27.43-49.02c1.05-2.05,0.71-3.38-0.71-4.82c-1.74-1.75-3.75-3.31-5.17-5.3
	c-9.38-13.14-17.21-26.88-18.74-43.52c-0.86-9.36-1.08-18.69,0.41-27.88c1.98-12.26,6.12-23.85,13.7-33.97c0.75-1,1.39-2.2,0.05-3.7
	c-5.6-6.33-10.99-12.84-16.52-19.24c-6.45-7.46-13.06-14.78-19.42-22.31c-10.09-11.95-20.28-23.82-30.55-35.61
	c-2.97-3.4-6.26-6.51-9.06-10.1c-2.35-3.01-5.16-6.23-9.59-6.08c-2.64,0.09-5.32,0.43-7.94,0.75c-15.14,1.86-29.35-0.05-42.11-9.17
	c-14.19-10.14-22.5-23.89-24.2-41.1c-1.2-12.16,0.21-24.08,6.92-35c8.87-14.44,21.02-24,37.6-28.07c2.32-0.57,4.89,0.64,6.9-1.21
	h9.18c2.41,1.77,5.29,0.69,7.95,1.24c21.38,4.41,35.73,16.85,43.36,37.12c3.45,9.17,3.81,18.66,2.46,28.34
	c-0.9,6.52-3.33,12.54-5.1,18.78c-0.29,1.04-0.68,1.66,0.22,2.7c6.42,7.45,12.69,15.01,19.06,22.5
	c9.6,11.29,19.23,22.55,28.86,33.81c9.94,11.61,19.93,23.18,29.83,34.83c2.04,2.4,4.25,2.75,7.1,1.71
	c5.02-1.83,10.06-3.65,15.19-5.09c9.65-2.72,19.6-2.17,29.48-2.17c4.07,0,7.97,0.86,11.86,1.95c10.6,2.99,20.52,7.57,30.23,12.67
	c2.08,1.09,3.51,1.08,5.42-0.59c4.41-3.85,8.75-7.78,13.4-11.33c9.53-7.28,18.61-15.08,27.71-22.86c4.93-4.21,10.08-8.2,14.69-12.74
	c2.84-2.79,6.71-5.57,5.72-10.47c-1.18-5.82-0.36-11.67-0.66-17.5c-0.33-6.3,0.24-12.41,2.83-18.29
	c7.1-16.13,18.2-28.48,35.24-33.68c14.03-4.27,28.58-4.36,42.42,1.62c9.04,3.91,16.67,9.98,22.35,18.1
	c5.52,7.89,10.2,16.11,11.1,26.18c0.68,7.61,1.07,15.19-0.74,22.5c-3.08,12.4-9.59,22.85-19.61,31.14
	c-9.06,7.49-19.32,11.67-30.92,12.55c-11.82,0.9-23.27-0.59-33.86-6.37c-0.92-0.5-1.45-0.75-2.39,0.08
	c-2.68,2.38-5.59,4.47-8.29,6.83c-6.19,5.42-12.36,10.85-18.74,16.04c-12.08,9.82-24.09,19.69-35.06,30.75
	c-1.33,1.34-1.77,2.42-0.49,4.95c3.23,6.38,5.64,13.26,5.79,20.42c0.04,1.97,1.27,3.42,3.12,3.6c5.3,0.52,10.61,0.97,15.91,1.44
	c5.19,0.46,10.39,0.96,15.54,1.58c8.49,1.02,16.99,1.8,25.49,2.65c5.18,0.52,10.38,0.93,15.56,1.46c8.61,0.89,17.21,1.97,25.83,2.74
	c6.12,0.55,12.25,1.11,18.37,1.61c9.61,0.79,19.17,1.96,28.84,2c1.59,0.01,2.38-0.51,3.2-1.85c4.37-7.18,9.75-13.64,16.61-18.43
	c13.58-9.48,28.54-13.43,45.2-10.21c15.51,3,27.51,10.97,36.56,23.78c3.76,5.32,6.54,11.07,8.6,17.16
	C692.3,280.87,692.97,292.34,693.41,299.94z"/>
</svg>
