<?xml version="1.0" ?><svg viewBox="0 0 128 128" xmlns="http://www.w3.org/2000/svg"><defs><style>.cls-1{fill:#333;}.cls-2{fill:#1f1f1f;}.cls-3{fill:#2175aa;}.cls-4{fill:#7aaccc;}.cls-5{fill:#1d6694;}.cls-6{fill:#d2423f;}.cls-7{fill:#dd6966;}.cls-8{fill:#ba3b38;}</style></defs><title/><g data-name="25 Element" id="_25_Element"><polygon class="cls-1" points="109.09 97.2 67 72.89 67 24.29 61 24.29 61 72.89 18.91 97.2 21.91 102.39 64 78.09 106.09 102.39 109.09 97.2"/><path class="cls-2" d="M47.18,87.8,64,78.09,80.82,87.8a21.38,21.38,0,0,0,3-5.19L67,72.89V53.46a19.26,19.26,0,0,0-6,0V72.89L44.16,82.61A21.38,21.38,0,0,0,47.18,87.8Z"/><circle class="cls-3" cx="64" cy="74.63" r="19.4"/><path class="cls-4" d="M45.6,75.63c0-17,20.25-25.67,32.59-14.19-12-12.88-33.59-4.37-33.59,13.19a19.32,19.32,0,0,0,6.21,14.19A19.31,19.31,0,0,1,45.6,75.63Z"/><path class="cls-5" d="M76.24,59.58c10.23,12.56,1.35,31.64-15,31.64A19.31,19.31,0,0,1,49,86.86,19.35,19.35,0,0,0,64,94C82.25,94,90.32,71,76.24,59.58Z"/><path class="cls-2" d="M89.1,92.58l17,9.81,3-5.2-17-9.81A11.77,11.77,0,0,0,89.1,92.58Z"/><path class="cls-2" d="M35.9,87.38l-17,9.81,3,5.2,17-9.81A11.77,11.77,0,0,0,35.9,87.38Z"/><path class="cls-2" d="M61,43.92a11.77,11.77,0,0,0,6,0V24.29H61Z"/><path class="cls-6" d="M75.19,32.12A11.19,11.19,0,1,1,64,20.93,11.19,11.19,0,0,1,75.19,32.12ZM91.12,90.29a11.19,11.19,0,1,0,15.28-4.09A11.19,11.19,0,0,0,91.12,90.29ZM17.5,101.47a11.19,11.19,0,1,0,4.09-15.28A11.19,11.19,0,0,0,17.5,101.47Z"/><path class="cls-7" d="M35.6,88.51a11.18,11.18,0,1,0-15.83,15.74C10.5,93.64,25.32,79.4,35.6,88.51Z"/><path class="cls-7" d="M65,21.93a11.13,11.13,0,0,1,7.39,2.8A11.18,11.18,0,1,0,56.61,40.5,11.19,11.19,0,0,1,65,21.93Z"/><path class="cls-7" d="M109.18,88.46a11.18,11.18,0,1,0-15.74,15.83C84.33,94,98.57,79.2,109.18,88.46Z"/><path class="cls-8" d="M34,87c8.12,10.43-5.37,23.61-15.62,15.74A11.18,11.18,0,1,0,34,87Z"/><path class="cls-8" d="M107.68,87.07c7.86,10.25-5.31,23.74-15.74,15.62a11.18,11.18,0,1,0,15.74-15.62Z"/><path class="cls-8" d="M70.84,23.28A11.17,11.17,0,0,1,55.16,39c6.5,8.39,20,3.81,20-6.84A11.16,11.16,0,0,0,70.84,23.28Z"/></g></svg>