<?xml version="1.0" encoding="utf-8"?>
<!-- Generator: Adobe Illustrator 23.0.3, SVG Export Plug-In . SVG Version: 6.00 Build 0)  -->
<svg version="1.1" id="Layer_1" xmlns="http://www.w3.org/2000/svg" xmlns:xlink="http://www.w3.org/1999/xlink" x="0px" y="0px"
	 viewBox="0 0 568 65" style="enable-background:new 0 0 568 65;" xml:space="preserve">
<style type="text/css">
	.st0{fill:#BB0E3D;}
	.st1{fill:#606060;}
	.st2{fill:#FFFFFF;}
</style>
<g>
	<g>
		<path class="st0" d="M115,15.89v11.2h-2.13l-5.59-6.8v6.8h-2.56v-11.2h2.15l5.57,6.8v-6.8H115z"/>
		<path class="st0" d="M125.03,24.7h-5.2l-0.99,2.4h-2.66l4.99-11.2h2.56l5.01,11.2h-2.72L125.03,24.7z M124.22,22.73l-1.78-4.29
			l-1.78,4.29H124.22z"/>
		<path class="st0" d="M131.67,18.01h-3.59v-2.11h9.76v2.11h-3.59v9.09h-2.59V18.01z"/>
		<path class="st0" d="M139.24,15.89h2.59v11.2h-2.59V15.89z"/>
		<path class="st0" d="M143.78,21.49c0-3.33,2.59-5.79,6.13-5.79c3.52,0,6.13,2.45,6.13,5.79c0,3.35-2.61,5.79-6.13,5.79
			C146.37,27.29,143.78,24.82,143.78,21.49z M153.42,21.49c0-2.13-1.5-3.58-3.51-3.58c-2,0-3.51,1.46-3.51,3.58s1.5,3.59,3.51,3.59
			C151.91,25.08,153.42,23.62,153.42,21.49z"/>
		<path class="st0" d="M168.27,15.89v11.2h-2.13l-5.59-6.8v6.8h-2.56v-11.2h2.15l5.57,6.8v-6.8H168.27z"/>
		<path class="st0" d="M178.3,24.7h-5.2l-0.99,2.4h-2.66l4.99-11.2H177l5.01,11.2h-2.72L178.3,24.7z M177.48,22.73l-1.78-4.29
			l-1.78,4.29H177.48z"/>
		<path class="st0" d="M183.17,15.89h2.59v9.09h5.62v2.11h-8.21V15.89z"/>
		<path class="st0" d="M196.66,21.49c0-3.38,2.59-5.79,6.08-5.79c1.94,0,3.55,0.7,4.61,1.98l-1.66,1.54
			c-0.75-0.86-1.7-1.31-2.82-1.31c-2.1,0-3.59,1.47-3.59,3.58c0,2.11,1.49,3.59,3.59,3.59c1.12,0,2.06-0.45,2.82-1.33l1.66,1.54
			c-1.06,1.3-2.67,2-4.63,2C199.25,27.29,196.66,24.87,196.66,21.49z"/>
		<path class="st0" d="M216.25,24.7h-5.2l-0.99,2.4h-2.66l4.99-11.2h2.56l5.01,11.2h-2.72L216.25,24.7z M215.43,22.73l-1.78-4.29
			l-1.78,4.29H215.43z"/>
		<path class="st0" d="M231.4,15.89v11.2h-2.13l-5.59-6.8v6.8h-2.56v-11.2h2.15l5.57,6.8v-6.8H231.4z"/>
		<path class="st0" d="M233.35,21.49c0-3.38,2.59-5.79,6.08-5.79c1.94,0,3.55,0.7,4.61,1.98l-1.66,1.54
			c-0.75-0.86-1.7-1.31-2.82-1.31c-2.1,0-3.58,1.47-3.58,3.58c0,2.11,1.49,3.59,3.58,3.59c1.12,0,2.06-0.45,2.82-1.33l1.66,1.54
			c-1.06,1.3-2.67,2-4.63,2C235.94,27.29,233.35,24.87,233.35,21.49z"/>
		<path class="st0" d="M254.46,25.02v2.08h-8.67v-11.2h8.47v2.08h-5.89v2.43h5.2v2.02h-5.2v2.59H254.46z"/>
		<path class="st0" d="M263.65,27.1l-2.16-3.12h-0.13h-2.26v3.12h-2.59v-11.2h4.85c2.99,0,4.87,1.55,4.87,4.07
			c0,1.68-0.85,2.91-2.3,3.54l2.51,3.6H263.65z M261.22,18.01h-2.11v3.91h2.11c1.58,0,2.38-0.74,2.38-1.95
			C263.61,18.73,262.81,18.01,261.22,18.01z"/>
		<path class="st0" d="M272.8,15.89h2.59v11.2h-2.59V15.89z"/>
		<path class="st0" d="M288.33,15.89v11.2h-2.13l-5.59-6.8v6.8h-2.56v-11.2h2.14l5.57,6.8v-6.8H288.33z"/>
		<path class="st0" d="M290.1,25.99l0.88-1.95c0.94,0.69,2.35,1.17,3.7,1.17c1.54,0,2.16-0.51,2.16-1.2c0-2.1-6.51-0.66-6.51-4.82
			c0-1.9,1.54-3.49,4.72-3.49c1.41,0,2.85,0.34,3.89,0.99l-0.8,1.97c-1.04-0.59-2.11-0.88-3.11-0.88c-1.54,0-2.13,0.58-2.13,1.28
			c0,2.06,6.51,0.64,6.51,4.75c0,1.87-1.55,3.47-4.75,3.47C292.88,27.29,291.09,26.76,290.1,25.99z"/>
		<path class="st0" d="M303.35,18.01h-3.58v-2.11h9.76v2.11h-3.58v9.09h-2.59V18.01z"/>
		<path class="st0" d="M310.92,15.89h2.59v11.2h-2.59V15.89z"/>
		<path class="st0" d="M318.48,18.01h-3.58v-2.11h9.76v2.11h-3.58v9.09h-2.59V18.01z"/>
		<path class="st0" d="M325.76,22.17v-6.27h2.59v6.18c0,2.13,0.93,3.01,2.5,3.01c1.58,0,2.5-0.88,2.5-3.01v-6.18h2.56v6.27
			c0,3.3-1.89,5.12-5.07,5.12S325.76,25.46,325.76,22.17z"/>
		<path class="st0" d="M340.6,18.01h-3.58v-2.11h9.76v2.11h-3.58v9.09h-2.59V18.01z"/>
		<path class="st0" d="M356.84,25.02v2.08h-8.67v-11.2h8.47v2.08h-5.89v2.43h5.2v2.02h-5.2v2.59H356.84z"/>
	</g>
</g>
<g>
	<g>
		<path class="st1" d="M104.6,34.9h6.36c4.58,0,7.72,2.76,7.72,7c0,4.24-3.14,7-7.72,7h-6.36V34.9z M110.8,46.24
			c2.78,0,4.6-1.66,4.6-4.34c0-2.68-1.82-4.34-4.6-4.34h-2.96v8.68H110.8z"/>
		<path class="st1" d="M120.52,34.9c0-0.98,0.78-1.74,1.94-1.74c1.16,0,1.94,0.72,1.94,1.68c0,1.04-0.78,1.8-1.94,1.8
			C121.3,36.64,120.52,35.88,120.52,34.9z M120.9,38.14h3.12V48.9h-3.12V38.14z"/>
		<path class="st1" d="M137.6,38.14l-4.54,10.76h-3.22l-4.52-10.76h3.22l2.98,7.32l3.08-7.32H137.6z"/>
		<path class="st1" d="M138.5,34.9c0-0.98,0.78-1.74,1.94-1.74s1.94,0.72,1.94,1.68c0,1.04-0.78,1.8-1.94,1.8
			S138.5,35.88,138.5,34.9z M138.88,38.14H142V48.9h-3.12V38.14z"/>
		<path class="st1" d="M143.86,47.9l1.04-2.24c0.96,0.62,2.42,1.04,3.74,1.04c1.44,0,1.98-0.38,1.98-0.98c0-1.76-6.5,0.04-6.5-4.26
			c0-2.04,1.84-3.48,4.98-3.48c1.48,0,3.12,0.34,4.14,0.94l-1.04,2.22c-1.06-0.6-2.12-0.8-3.1-0.8c-1.4,0-2,0.44-2,1
			c0,1.84,6.5,0.06,6.5,4.3c0,2-1.86,3.42-5.08,3.42C146.7,49.06,144.86,48.56,143.86,47.9z"/>
		<path class="st1" d="M155.14,34.9c0-0.98,0.78-1.74,1.94-1.74s1.94,0.72,1.94,1.68c0,1.04-0.78,1.8-1.94,1.8
			S155.14,35.88,155.14,34.9z M155.52,38.14h3.12V48.9h-3.12V38.14z"/>
		<path class="st1" d="M160.74,43.52c0-3.24,2.5-5.54,5.92-5.54c3.42,0,5.9,2.3,5.9,5.54c0,3.24-2.48,5.54-5.9,5.54
			C163.24,49.06,160.74,46.76,160.74,43.52z M169.4,43.52c0-1.86-1.18-2.98-2.74-2.98c-1.56,0-2.76,1.12-2.76,2.98
			s1.2,2.98,2.76,2.98C168.22,46.5,169.4,45.38,169.4,43.52z"/>
		<path class="st1" d="M185.64,42.74v6.16h-3.12v-5.68c0-1.74-0.8-2.54-2.18-2.54c-1.5,0-2.58,0.92-2.58,2.9v5.32h-3.12V38.14h2.98
			v1.26c0.84-0.92,2.1-1.42,3.56-1.42C183.72,37.98,185.64,39.46,185.64,42.74z"/>
		<path class="st1" d="M193.32,43.52c0-3.24,2.5-5.54,5.92-5.54c3.42,0,5.9,2.3,5.9,5.54c0,3.24-2.48,5.54-5.9,5.54
			C195.82,49.06,193.32,46.76,193.32,43.52z M201.98,43.52c0-1.86-1.18-2.98-2.74-2.98c-1.56,0-2.76,1.12-2.76,2.98
			s1.2,2.98,2.76,2.98C200.8,46.5,201.98,45.38,201.98,43.52z"/>
		<path class="st1" d="M210.64,38.38h2.76v2.4h-2.68v8.12h-3.12v-8.12h-1.66v-2.4h1.66V37.9c0-2.42,1.48-4,4.16-4
			c0.88,0,1.8,0.18,2.38,0.58l-0.82,2.26c-0.34-0.24-0.78-0.38-1.26-0.38c-0.92,0-1.42,0.5-1.42,1.56V38.38z"/>
		<path class="st1" d="M219.96,41.9c0-4.22,3.24-7.24,7.6-7.24c2.42,0,4.44,0.88,5.76,2.48l-2.08,1.92
			c-0.94-1.08-2.12-1.64-3.52-1.64c-2.62,0-4.48,1.84-4.48,4.48c0,2.64,1.86,4.48,4.48,4.48c1.4,0,2.58-0.56,3.52-1.66l2.08,1.92
			c-1.32,1.62-3.34,2.5-5.78,2.5C223.2,49.14,219.96,46.12,219.96,41.9z"/>
		<path class="st1" d="M244.72,42.76v6.14h-2.92v-1.34c-0.58,0.98-1.7,1.5-3.28,1.5c-2.52,0-4.02-1.4-4.02-3.26
			c0-1.9,1.34-3.22,4.62-3.22h2.48c0-1.34-0.8-2.12-2.48-2.12c-1.14,0-2.32,0.38-3.1,1l-1.12-2.18c1.18-0.84,2.92-1.3,4.64-1.3
			C242.82,37.98,244.72,39.5,244.72,42.76z M241.6,45.5v-1.1h-2.14c-1.46,0-1.92,0.54-1.92,1.26c0,0.78,0.66,1.3,1.76,1.3
			C240.34,46.96,241.24,46.48,241.6,45.5z"/>
		<path class="st1" d="M258.54,42.74v6.16h-3.12v-5.68c0-1.74-0.8-2.54-2.18-2.54c-1.5,0-2.58,0.92-2.58,2.9v5.32h-3.12V38.14h2.98
			v1.26c0.84-0.92,2.1-1.42,3.56-1.42C256.62,37.98,258.54,39.46,258.54,42.74z"/>
		<path class="st1" d="M260.68,43.52c0-3.24,2.5-5.54,6-5.54c2.26,0,4.04,0.98,4.82,2.74l-2.42,1.3c-0.58-1.02-1.44-1.48-2.42-1.48
			c-1.58,0-2.82,1.1-2.82,2.98c0,1.88,1.24,2.98,2.82,2.98c0.98,0,1.84-0.44,2.42-1.48l2.42,1.32c-0.78,1.72-2.56,2.72-4.82,2.72
			C263.18,49.06,260.68,46.76,260.68,43.52z"/>
		<path class="st1" d="M283.64,44.4h-8.14c0.3,1.34,1.44,2.16,3.08,2.16c1.14,0,1.96-0.34,2.7-1.04l1.66,1.8
			c-1,1.14-2.5,1.74-4.44,1.74c-3.72,0-6.14-2.34-6.14-5.54c0-3.22,2.46-5.54,5.74-5.54c3.16,0,5.6,2.12,5.6,5.58
			C283.7,43.8,283.66,44.14,283.64,44.4z M275.46,42.58h5.3c-0.22-1.36-1.24-2.24-2.64-2.24C276.7,40.34,275.68,41.2,275.46,42.58z"
			/>
		<path class="st1" d="M292.46,37.98v2.88c-0.26-0.02-0.46-0.04-0.7-0.04c-1.72,0-2.86,0.94-2.86,3v5.08h-3.12V38.14h2.98v1.42
			C289.52,38.52,290.8,37.98,292.46,37.98z"/>
		<path class="st1" d="M311.12,46.3v2.6h-10.84v-14h10.58v2.6h-7.36v3.04h6.5v2.52h-6.5v3.24H311.12z"/>
		<path class="st1" d="M325.2,43.52c0,3.38-2.34,5.54-5.36,5.54c-1.34,0-2.44-0.42-3.24-1.3v5.02h-3.12V38.14h2.98v1.24
			c0.78-0.94,1.94-1.4,3.38-1.4C322.86,37.98,325.2,40.14,325.2,43.52z M322.04,43.52c0-1.86-1.18-2.98-2.74-2.98
			s-2.74,1.12-2.74,2.98s1.18,2.98,2.74,2.98S322.04,45.38,322.04,43.52z"/>
		<path class="st1" d="M326.9,34.9c0-0.98,0.78-1.74,1.94-1.74s1.94,0.72,1.94,1.68c0,1.04-0.78,1.8-1.94,1.8
			S326.9,35.88,326.9,34.9z M327.28,38.14h3.12V48.9h-3.12V38.14z"/>
		<path class="st1" d="M344.26,34.06V48.9h-2.98v-1.24c-0.78,0.94-1.92,1.4-3.36,1.4c-3.04,0-5.38-2.16-5.38-5.54
			s2.34-5.54,5.38-5.54c1.32,0,2.44,0.42,3.22,1.3v-5.22H344.26z M341.2,43.52c0-1.86-1.2-2.98-2.74-2.98
			c-1.56,0-2.76,1.12-2.76,2.98s1.2,2.98,2.76,2.98C340,46.5,341.2,45.38,341.2,43.52z"/>
		<path class="st1" d="M357.62,44.4h-8.14c0.3,1.34,1.44,2.16,3.08,2.16c1.14,0,1.96-0.34,2.7-1.04l1.66,1.8
			c-1,1.14-2.5,1.74-4.44,1.74c-3.72,0-6.14-2.34-6.14-5.54c0-3.22,2.46-5.54,5.74-5.54c3.16,0,5.6,2.12,5.6,5.58
			C357.68,43.8,357.64,44.14,357.62,44.4z M349.44,42.58h5.3c-0.22-1.36-1.24-2.24-2.64-2.24C350.68,40.34,349.66,41.2,349.44,42.58
			z"/>
		<path class="st1" d="M377.94,42.74v6.16h-3.12v-5.68c0-1.74-0.78-2.54-2.04-2.54c-1.4,0-2.38,0.9-2.38,2.82v5.4h-3.12v-5.68
			c0-1.74-0.74-2.54-2.04-2.54c-1.38,0-2.36,0.9-2.36,2.82v5.4h-3.12V38.14h2.98v1.24c0.8-0.92,2-1.4,3.38-1.4
			c1.5,0,2.78,0.58,3.54,1.76c0.86-1.1,2.26-1.76,3.88-1.76C376.1,37.98,377.94,39.46,377.94,42.74z"/>
		<path class="st1" d="M380.36,34.9c0-0.98,0.78-1.74,1.94-1.74s1.94,0.72,1.94,1.68c0,1.04-0.78,1.8-1.94,1.8
			S380.36,35.88,380.36,34.9z M380.74,38.14h3.12V48.9h-3.12V38.14z"/>
		<path class="st1" d="M385.96,43.52c0-3.24,2.5-5.54,5.92-5.54s5.9,2.3,5.9,5.54c0,3.24-2.48,5.54-5.9,5.54
			S385.96,46.76,385.96,43.52z M394.62,43.52c0-1.86-1.18-2.98-2.74-2.98s-2.76,1.12-2.76,2.98s1.2,2.98,2.76,2.98
			S394.62,45.38,394.62,43.52z"/>
		<path class="st1" d="M399.86,34.06h3.12V48.9h-3.12V34.06z"/>
		<path class="st1" d="M405.08,43.52c0-3.24,2.5-5.54,5.92-5.54s5.9,2.3,5.9,5.54c0,3.24-2.48,5.54-5.9,5.54
			S405.08,46.76,405.08,43.52z M413.74,43.52c0-1.86-1.18-2.98-2.74-2.98s-2.76,1.12-2.76,2.98s1.2,2.98,2.76,2.98
			S413.74,45.38,413.74,43.52z"/>
		<path class="st1" d="M430.08,38.14v8.96c0,4-2.16,5.84-6.04,5.84c-2.04,0-4.02-0.5-5.28-1.48l1.24-2.24
			c0.92,0.74,2.42,1.22,3.8,1.22c2.2,0,3.16-1,3.16-2.94v-0.46c-0.82,0.9-2,1.34-3.4,1.34c-2.98,0-5.38-2.06-5.38-5.2
			c0-3.14,2.4-5.2,5.38-5.2c1.5,0,2.74,0.5,3.56,1.54v-1.38H430.08z M427,43.18c0-1.58-1.18-2.64-2.82-2.64s-2.84,1.06-2.84,2.64
			c0,1.58,1.2,2.64,2.84,2.64S427,44.76,427,43.18z"/>
		<path class="st1" d="M443.66,38.14l-4.86,11.42c-1.04,2.6-2.52,3.38-4.46,3.38c-1.1,0-2.3-0.36-3-0.98l1.14-2.22
			c0.48,0.42,1.14,0.68,1.76,0.68c0.86,0,1.34-0.38,1.76-1.34l0.04-0.1l-4.66-10.84h3.22l3.02,7.3l3.04-7.3H443.66z"/>
		<path class="st1" d="M461.58,49.14l-1.68-1.56c-1.28,1-2.88,1.56-4.68,1.56c-3.08,0-5.34-1.6-5.34-3.84
			c0-1.76,0.94-2.98,3.08-4.18c-1.02-1.06-1.44-1.96-1.44-2.96c0-2.04,1.72-3.44,4.36-3.44c2.42,0,4.02,1.24,4.02,3.22
			c0,1.44-0.84,2.5-2.74,3.54l2.56,2.38c0.3-0.62,0.54-1.36,0.7-2.18l2.5,0.78c-0.26,1.2-0.68,2.28-1.28,3.18l1.64,1.52
			L461.58,49.14z M458.06,45.88l-3.38-3.16c-1.28,0.74-1.74,1.38-1.74,2.24c0,1.02,0.96,1.74,2.5,1.74
			C456.4,46.7,457.3,46.42,458.06,45.88z M454.36,38.12c0,0.54,0.22,0.94,1.08,1.78c1.38-0.74,1.82-1.26,1.82-1.9
			c0-0.68-0.48-1.16-1.38-1.16C454.92,36.84,454.36,37.38,454.36,38.12z"/>
		<path class="st1" d="M480.5,41.68h2.96v5.68c-1.54,1.16-3.66,1.78-5.66,1.78c-4.4,0-7.64-3.02-7.64-7.24
			c0-4.22,3.24-7.24,7.7-7.24c2.46,0,4.5,0.84,5.86,2.42L481.64,39c-1.02-1.08-2.2-1.58-3.62-1.58c-2.72,0-4.58,1.82-4.58,4.48
			c0,2.62,1.86,4.48,4.54,4.48c0.88,0,1.7-0.16,2.52-0.6V41.68z"/>
		<path class="st1" d="M496.72,44.4h-8.14c0.3,1.34,1.44,2.16,3.08,2.16c1.14,0,1.96-0.34,2.7-1.04l1.66,1.8
			c-1,1.14-2.5,1.74-4.44,1.74c-3.72,0-6.14-2.34-6.14-5.54c0-3.22,2.46-5.54,5.74-5.54c3.16,0,5.6,2.12,5.6,5.58
			C496.78,43.8,496.74,44.14,496.72,44.4z M488.54,42.58h5.3c-0.22-1.36-1.24-2.24-2.64-2.24C489.78,40.34,488.76,41.2,488.54,42.58
			z"/>
		<path class="st1" d="M509.86,42.74v6.16h-3.12v-5.68c0-1.74-0.8-2.54-2.18-2.54c-1.5,0-2.58,0.92-2.58,2.9v5.32h-3.12V38.14h2.98
			v1.26c0.84-0.92,2.1-1.42,3.56-1.42C507.94,37.98,509.86,39.46,509.86,42.74z"/>
		<path class="st1" d="M523.28,44.4h-8.14c0.3,1.34,1.44,2.16,3.08,2.16c1.14,0,1.96-0.34,2.7-1.04l1.66,1.8
			c-1,1.14-2.5,1.74-4.44,1.74c-3.72,0-6.14-2.34-6.14-5.54c0-3.22,2.46-5.54,5.74-5.54c3.16,0,5.6,2.12,5.6,5.58
			C523.34,43.8,523.3,44.14,523.28,44.4z M515.1,42.58h5.3c-0.22-1.36-1.24-2.24-2.64-2.24C516.34,40.34,515.32,41.2,515.1,42.58z"
			/>
		<path class="st1" d="M532.36,48.38c-0.64,0.46-1.58,0.68-2.54,0.68c-2.54,0-4.02-1.3-4.02-3.86v-4.42h-1.66v-2.4h1.66v-2.62h3.12
			v2.62h2.68v2.4h-2.68v4.38c0,0.92,0.5,1.42,1.34,1.42c0.46,0,0.92-0.14,1.26-0.4L532.36,48.38z"/>
		<path class="st1" d="M533.74,34.9c0-0.98,0.78-1.74,1.94-1.74s1.94,0.72,1.94,1.68c0,1.04-0.78,1.8-1.94,1.8
			S533.74,35.88,533.74,34.9z M534.12,38.14h3.12V48.9h-3.12V38.14z"/>
		<path class="st1" d="M539.33,43.52c0-3.24,2.5-5.54,6-5.54c2.26,0,4.04,0.98,4.82,2.74l-2.42,1.3c-0.58-1.02-1.44-1.48-2.42-1.48
			c-1.58,0-2.82,1.1-2.82,2.98c0,1.88,1.24,2.98,2.82,2.98c0.98,0,1.84-0.44,2.42-1.48l2.42,1.32c-0.78,1.72-2.56,2.72-4.82,2.72
			C541.83,49.06,539.33,46.76,539.33,43.52z"/>
		<path class="st1" d="M550.92,47.9l1.04-2.24c0.96,0.62,2.42,1.04,3.74,1.04c1.44,0,1.98-0.38,1.98-0.98c0-1.76-6.5,0.04-6.5-4.26
			c0-2.04,1.84-3.48,4.98-3.48c1.48,0,3.12,0.34,4.14,0.94l-1.04,2.22c-1.06-0.6-2.12-0.8-3.1-0.8c-1.4,0-2,0.44-2,1
			c0,1.84,6.5,0.06,6.5,4.3c0,2-1.86,3.42-5.08,3.42C553.75,49.06,551.92,48.56,550.92,47.9z"/>
	</g>
</g>
<g>
	<g>
		<path class="st1" d="M80,32L65,5H10.77C7.58,5,5,7.59,5,10.79v42.43C5,56.41,7.58,59,10.77,59H65L80,32z"/>
		<path class="st0" d="M78.5,7.81C77.45,6.07,75.54,5,73.49,5H69l15.2,27L69,59h4.49c2.06,0,3.96-1.07,5.02-2.81L92,32L78.5,7.81z"
			/>
	</g>
	<g>
		<rect x="37" y="20" class="st2" width="4" height="24"/>
		<polygon class="st2" points="29,20 29,37.6 18,20 14,20 14,44 18,44 18,26.4 29,44 33,44 33,20 		"/>
		<polygon class="st2" points="60,20 60,30 49,30 49,20 45,20 45,44 49,44 49,34 60,34 60,44 64,44 64,20 		"/>
	</g>
</g>
<g>
</g>
<g>
</g>
<g>
</g>
<g>
</g>
<g>
</g>
<g>
</g>
</svg>
