<?xml version="1.0" encoding="utf-8"?>
<!-- Generator: Adobe Illustrator 23.0.1, SVG Export Plug-In . SVG Version: 6.00 Build 0)  -->
<svg version="1.1" id="Layer_1" xmlns="http://www.w3.org/2000/svg" xmlns:xlink="http://www.w3.org/1999/xlink" x="0px" y="0px"
	 viewBox="0 0 437 100" style="enable-background:new 0 0 437 100;" xml:space="preserve">
<style type="text/css">
	.st0{fill:#606061;}
	.st1{fill:#BA1F40;}
	.st2{fill:#FFFFFF;}
	.st3{fill:#BB0E3D;}
	.st4{fill:#606060;}
</style>
<g>
	<g>
		<path class="st0" d="M98,50L83,23H28.8c-3.2,0-5.8,2.6-5.8,5.8v42.4c0,3.2,2.6,5.8,5.8,5.8H83L98,50z"/>
		<path class="st1" d="M96.5,25.8c-1.1-1.7-3-2.8-5-2.8H87l15.2,27L87,77h4.5c2.1,0,4-1.1,5-2.8L110,50L96.5,25.8z"/>
	</g>
	<g>
		<rect x="55" y="38" class="st2" width="4" height="24"/>
		<polygon class="st2" points="47,38 47,55.6 36,38 32,38 32,62 36,62 36,44.4 47,62 51,62 51,38 		"/>
		<polygon class="st2" points="78,38 78,48 67,48 67,38 63,38 63,62 67,62 67,52 78,52 78,62 82,62 82,38 		"/>
	</g>
</g>
<g>
	<g>
		<path class="st3" d="M130.8,31h2.5v11.2h-2.5l-5.3-7v7H123V31h2.3l5.5,7.2V31z"/>
		<path class="st3" d="M144.1,42.2l-1-2.4h-4.7l-1,2.4h-2.7l4.8-11.2h2.4l4.8,11.2H144.1z M140.7,34.3l-1.4,3.2h2.8L140.7,34.3z"/>
		<path class="st3" d="M151.9,33.2v9h-2.5v-9h-3.2V31h8.8v2.2H151.9z"/>
		<path class="st3" d="M156.9,31h2.5v11.2h-2.5V31z"/>
		<path class="st3" d="M171.6,40.6c-1.1,1.1-2.5,1.7-4.2,1.7s-3-0.6-4.2-1.7c-1.1-1.1-1.7-2.5-1.7-4.1c0-1.6,0.6-3,1.7-4.1
			c1.1-1.1,2.5-1.7,4.2-1.7s3,0.6,4.2,1.7c1.1,1.1,1.7,2.5,1.7,4.1C173.3,38.2,172.7,39.5,171.6,40.6z M170.7,36.5
			c0-1-0.3-1.8-1-2.6c-0.6-0.7-1.4-1.1-2.4-1.1s-1.7,0.4-2.4,1.1c-0.6,0.7-1,1.6-1,2.6c0,1,0.3,1.8,1,2.5c0.6,0.7,1.4,1,2.4,1
			s1.7-0.3,2.4-1C170.4,38.4,170.7,37.5,170.7,36.5z"/>
		<path class="st3" d="M183.2,31h2.5v11.2h-2.5l-5.3-7v7h-2.5V31h2.3l5.5,7.2V31z"/>
		<path class="st3" d="M196.4,42.2l-1-2.4h-4.7l-1,2.4H187l4.8-11.2h2.4l4.8,11.2H196.4z M193.1,34.3l-1.4,3.2h2.8L193.1,34.3z"/>
		<path class="st3" d="M200.4,42.2V31h2.5v9h4.8v2.2H200.4z"/>
		<path class="st3" d="M218.8,40c1.2,0,2.2-0.5,3-1.5l1.6,1.6c-1.3,1.4-2.8,2.1-4.5,2.1s-3.1-0.5-4.3-1.6c-1.1-1.1-1.7-2.5-1.7-4.1
			c0-1.7,0.6-3,1.7-4.2c1.1-1.1,2.5-1.7,4.2-1.7c1.8,0,3.4,0.7,4.6,2.1l-1.6,1.8c-0.8-1-1.8-1.5-2.9-1.5c-0.9,0-1.7,0.3-2.4,0.9
			c-0.7,0.6-1,1.4-1,2.5s0.3,1.9,0.9,2.5C217.2,39.7,217.9,40,218.8,40z"/>
		<path class="st3" d="M233.3,42.2l-1-2.4h-4.7l-1,2.4h-2.7l4.8-11.2h2.4l4.8,11.2H233.3z M229.9,34.3l-1.4,3.2h2.8L229.9,34.3z"/>
		<path class="st3" d="M245.1,31h2.5v11.2h-2.5l-5.3-7v7h-2.5V31h2.3l5.5,7.2V31z"/>
		<path class="st3" d="M255.5,40c1.2,0,2.2-0.5,3-1.5l1.6,1.6c-1.3,1.4-2.8,2.1-4.5,2.1s-3.1-0.5-4.3-1.6c-1.1-1.1-1.7-2.5-1.7-4.1
			c0-1.7,0.6-3,1.7-4.2c1.1-1.1,2.5-1.7,4.2-1.7c1.8,0,3.4,0.7,4.6,2.1l-1.6,1.8c-0.8-1-1.8-1.5-2.9-1.5c-0.9,0-1.7,0.3-2.4,0.9
			c-0.7,0.6-1,1.4-1,2.5s0.3,1.9,0.9,2.5C253.8,39.7,254.6,40,255.5,40z"/>
		<path class="st3" d="M270.1,31v2.2h-5.6v2.3h5v2.1h-5V40h5.7v2.2H262V31H270.1z"/>
		<path class="st3" d="M281.6,34.7c0,1.8-0.7,2.9-2.1,3.5l2.8,4h-3.1l-2.5-3.6H275v3.6h-2.5V31h4.2c1.7,0,3,0.3,3.7,0.9
			S281.6,33.4,281.6,34.7z M278.6,36c0.3-0.3,0.5-0.7,0.5-1.3s-0.2-1-0.5-1.2s-0.9-0.3-1.7-0.3H275v3.3h1.8
			C277.7,36.5,278.2,36.3,278.6,36z"/>
		<path class="st3" d="M288.4,31h2.5v11.2h-2.5V31z"/>
		<path class="st3" d="M301.4,31h2.5v11.2h-2.5l-5.3-7v7h-2.5V31h2.3l5.5,7.2V31z"/>
		<path class="st3" d="M309.3,33.2c-0.2,0.2-0.4,0.5-0.4,0.8s0.1,0.6,0.4,0.8c0.3,0.2,1,0.4,2,0.7s1.9,0.7,2.5,1.2
			c0.6,0.5,0.9,1.3,0.9,2.3c0,1-0.4,1.8-1.1,2.4s-1.7,0.9-3,0.9c-1.8,0-3.4-0.7-4.8-2l1.5-1.8c1.2,1.1,2.3,1.6,3.3,1.6
			c0.5,0,0.8-0.1,1.1-0.3c0.3-0.2,0.4-0.5,0.4-0.8s-0.1-0.6-0.4-0.8s-0.8-0.4-1.6-0.6c-1.3-0.3-2.3-0.7-2.9-1.2s-0.9-1.3-0.9-2.3
			s0.4-1.9,1.1-2.5c0.8-0.6,1.7-0.9,2.9-0.9c0.7,0,1.5,0.1,2.2,0.4c0.7,0.3,1.4,0.6,2,1.1l-1.3,1.8c-1-0.7-2-1.1-3-1.1
			C309.9,32.9,309.5,33,309.3,33.2z"/>
		<path class="st3" d="M321.5,33.2v9H319v-9h-3.2V31h8.8v2.2H321.5z"/>
		<path class="st3" d="M326.5,31h2.5v11.2h-2.5V31z"/>
		<path class="st3" d="M336.5,33.2v9H334v-9h-3.2V31h8.8v2.2H336.5z"/>
		<path class="st3" d="M344.4,39.3c0.4,0.5,1,0.8,1.7,0.8s1.3-0.3,1.7-0.8c0.4-0.5,0.6-1.2,0.6-2.1V31h2.5v6.3
			c0,1.6-0.4,2.9-1.3,3.7c-0.9,0.9-2,1.3-3.4,1.3c-1.4,0-2.5-0.4-3.4-1.3c-0.9-0.9-1.4-2.1-1.4-3.7V31h2.5v6.2
			C343.8,38.1,344,38.8,344.4,39.3z"/>
		<path class="st3" d="M358.2,33.2v9h-2.5v-9h-3.2V31h8.8v2.2H358.2z"/>
		<path class="st3" d="M371.3,31v2.2h-5.6v2.3h5v2.1h-5V40h5.7v2.2h-8.2V31H371.3z"/>
	</g>
</g>
<g>
	<path class="st4" d="M132.4,61.5h3.3v5.2c-1.5,1.6-3.5,2.4-6,2.4c-2.2,0-4-0.7-5.4-2.1c-1.5-1.4-2.2-3.2-2.2-5.4
		c0-2.2,0.7-4,2.2-5.5c1.5-1.5,3.3-2.2,5.4-2.2c2.1,0,3.9,0.7,5.5,2.1l-1.7,2.5c-0.7-0.6-1.3-1-1.8-1.2s-1.2-0.3-1.8-0.3
		c-1.2,0-2.3,0.4-3.2,1.3c-0.9,0.8-1.3,2-1.3,3.3c0,1.4,0.4,2.5,1.2,3.3c0.8,0.8,1.8,1.2,2.9,1.2s2.1-0.2,2.8-0.7V61.5z"/>
	<path class="st4" d="M143,62.7l2.6-8.4h3.4l2.6,8.4l2.9-8.4h3.5L153,68.9h-2.4l-3.2-10.2l-3.2,10.2h-2.4l-5.1-14.7h3.5L143,62.7z"
		/>
	<path class="st4" d="M169.5,68.9l-1.4-3.2H162l-1.4,3.2h-3.5l6.3-14.7h3.2l6.3,14.7H169.5z M165.1,58.6l-1.8,4.3h3.7L165.1,58.6z"
		/>
	<path class="st4" d="M178,57.2c-0.3,0.3-0.5,0.6-0.5,1c0,0.4,0.2,0.8,0.6,1c0.4,0.3,1.3,0.5,2.7,0.9c1.4,0.3,2.5,0.9,3.2,1.5
		s1.2,1.7,1.2,3s-0.5,2.4-1.5,3.2s-2.3,1.2-3.9,1.2c-2.3,0-4.4-0.9-6.3-2.6l2-2.4c1.6,1.4,3,2.1,4.4,2.1c0.6,0,1.1-0.1,1.4-0.4
		c0.3-0.3,0.5-0.6,0.5-1.1c0-0.4-0.2-0.8-0.5-1c-0.4-0.3-1.1-0.5-2.2-0.8c-1.7-0.4-3-0.9-3.7-1.6c-0.8-0.7-1.2-1.7-1.2-3.1
		c0-1.4,0.5-2.5,1.5-3.2s2.2-1.1,3.7-1.1c1,0,2,0.2,2.9,0.5c1,0.3,1.8,0.8,2.6,1.4l-1.7,2.4c-1.3-1-2.6-1.4-3.9-1.4
		C178.8,56.8,178.4,56.9,178,57.2z"/>
	<path class="st4" d="M204.1,54.3v2.9h-7.3v3h6.6V63h-6.6v3h7.5v2.9h-10.8V54.3H204.1z"/>
	<path class="st4" d="M209.7,57.6l1.9,3l2-3h3.7l-3.9,5.5l4,5.8h-3.8l-2.2-3.1l-2.1,3.1h-3.6l3.9-5.8l-3.7-5.5H209.7z"/>
	<path class="st4" d="M225.8,57.5c1.3,0,2.5,0.5,3.5,1.6c1,1.1,1.5,2.5,1.5,4.1c0,1.7-0.5,3.1-1.5,4.2c-1,1.1-2.2,1.7-3.6,1.7
		s-2.5-0.6-3.3-1.7V73h-3.1V57.6h3.1v1.3C223.4,57.9,224.5,57.5,225.8,57.5z M222.4,63.3c0,0.9,0.3,1.7,0.8,2.2s1.1,0.9,1.9,0.9
		c0.7,0,1.4-0.3,1.9-0.9s0.8-1.3,0.8-2.2s-0.3-1.7-0.8-2.3c-0.5-0.6-1.2-0.9-1.9-0.9s-1.4,0.3-1.9,0.9
		C222.6,61.6,222.4,62.4,222.4,63.3z"/>
	<path class="st4" d="M236.4,68.9h-3.1V53.4h3.1V68.9z"/>
	<path class="st4" d="M250.7,63.3c0,1.6-0.6,3-1.7,4.1s-2.6,1.7-4.3,1.7s-3.1-0.6-4.3-1.7s-1.7-2.5-1.7-4.1c0-1.6,0.6-3,1.7-4.1
		s2.6-1.7,4.3-1.7s3.1,0.6,4.3,1.7S250.7,61.7,250.7,63.3z M241.9,63.3c0,0.9,0.3,1.7,0.8,2.3c0.5,0.6,1.2,0.9,2,0.9s1.5-0.3,2-0.9
		c0.5-0.6,0.8-1.3,0.8-2.3c0-0.9-0.3-1.7-0.8-2.3c-0.5-0.6-1.2-0.9-2-0.9s-1.5,0.3-2,0.9C242.2,61.6,241.9,62.4,241.9,63.3z"/>
	<path class="st4" d="M258.9,60.4c-0.9,0-1.6,0.3-2.1,1s-0.7,1.5-0.7,2.6v4.9H253V57.6h3.1v1.5c0.4-0.5,0.9-0.9,1.5-1.2
		c0.6-0.3,1.2-0.5,1.9-0.5l0,3H258.9z"/>
	<path class="st4" d="M271.4,67.3c-1.3,1.2-2.8,1.8-4.5,1.8c-1.7,0-3.1-0.5-4.3-1.6c-1.1-1.1-1.7-2.5-1.7-4.3c0-1.8,0.6-3.2,1.7-4.2
		c1.1-1,2.5-1.6,4-1.6c1.6,0,2.9,0.5,4,1.4c1.1,0.9,1.6,2.2,1.6,3.9v1.7h-8.2c0.1,0.6,0.4,1.1,1,1.5c0.5,0.4,1.2,0.6,1.8,0.6
		c1.1,0,2-0.4,2.7-1.1L271.4,67.3z M268.4,60.6c-0.4-0.4-1-0.5-1.6-0.5c-0.6,0-1.2,0.2-1.7,0.6c-0.5,0.4-0.8,0.9-0.9,1.5h5
		C269.1,61.5,268.8,61,268.4,60.6z"/>
	<path class="st4" d="M280.5,60.4c-0.9,0-1.6,0.3-2.1,1s-0.7,1.5-0.7,2.6v4.9h-3.1V57.6h3.1v1.5c0.4-0.5,0.9-0.9,1.5-1.2
		c0.6-0.3,1.2-0.5,1.9-0.5l0,3H280.5z"/>
</g>
</svg>
